<svg width="1292" height="406" viewBox="0 0 1292 406" fill="none" xmlns="http://www.w3.org/2000/svg">
<g clip-path="url(#clip0_1364_33558)">
<rect width="1292" height="406" rx="100" fill="#6CFF95"/>
<circle cx="32" cy="110" r="2" fill="#1A1C22" fill-opacity="0.26"/>
<circle cx="672" cy="110" r="2" fill="#1A1C22" fill-opacity="0.26"/>
<circle cx="160" cy="110" r="2" fill="#1A1C22" fill-opacity="0.26"/>
<circle cx="800" cy="110" r="2" fill="#1A1C22" fill-opacity="0.26"/>
<circle cx="288" cy="110" r="2" fill="#1A1C22" fill-opacity="0.26"/>
<circle cx="928" cy="110" r="2" fill="#1A1C22" fill-opacity="0.26"/>
<circle cx="416" cy="110" r="2" fill="#1A1C22" fill-opacity="0.26"/>
<circle cx="1056" cy="110" r="2" fill="#1A1C22" fill-opacity="0.26"/>
<circle cx="544" cy="110" r="2" fill="#1A1C22" fill-opacity="0.26"/>
<circle cx="1184" cy="110" r="2" fill="#1A1C22" fill-opacity="0.26"/>
<circle cx="96" cy="110" r="2" fill="#1A1C22" fill-opacity="0.26"/>
<circle cx="736" cy="110" r="2" fill="#1A1C22" fill-opacity="0.26"/>
<circle cx="224" cy="110" r="2" fill="#1A1C22" fill-opacity="0.26"/>
<circle cx="864" cy="110" r="2" fill="#1A1C22" fill-opacity="0.26"/>
<circle cx="352" cy="110" r="2" fill="#1A1C22" fill-opacity="0.26"/>
<circle cx="992" cy="110" r="2" fill="#1A1C22" fill-opacity="0.26"/>
<circle cx="480" cy="110" r="2" fill="#1A1C22" fill-opacity="0.26"/>
<circle cx="1120" cy="110" r="2" fill="#1A1C22" fill-opacity="0.26"/>
<circle cx="608" cy="110" r="2" fill="#1A1C22" fill-opacity="0.26"/>
<circle cx="1248" cy="110" r="2" fill="#1A1C22" fill-opacity="0.26"/>
<circle cx="32" cy="174" r="2" fill="#1A1C22" fill-opacity="0.26"/>
<circle cx="672" cy="174" r="2" fill="#1A1C22" fill-opacity="0.26"/>
<circle cx="160" cy="174" r="2" fill="#1A1C22" fill-opacity="0.26"/>
<circle cx="800" cy="174" r="2" fill="#1A1C22" fill-opacity="0.26"/>
<circle cx="288" cy="174" r="2" fill="#1A1C22" fill-opacity="0.26"/>
<circle cx="928" cy="174" r="2" fill="#1A1C22" fill-opacity="0.26"/>
<circle cx="416" cy="174" r="2" fill="#1A1C22" fill-opacity="0.26"/>
<circle cx="1056" cy="174" r="2" fill="#1A1C22" fill-opacity="0.26"/>
<circle cx="544" cy="174" r="2" fill="#1A1C22" fill-opacity="0.26"/>
<circle cx="1184" cy="174" r="2" fill="#1A1C22" fill-opacity="0.26"/>
<circle cx="96" cy="174" r="2" fill="#1A1C22" fill-opacity="0.26"/>
<circle cx="736" cy="174" r="2" fill="#1A1C22" fill-opacity="0.26"/>
<circle cx="224" cy="174" r="2" fill="#1A1C22" fill-opacity="0.26"/>
<circle cx="864" cy="174" r="2" fill="#1A1C22" fill-opacity="0.26"/>
<circle cx="352" cy="174" r="2" fill="#1A1C22" fill-opacity="0.26"/>
<circle cx="992" cy="174" r="2" fill="#1A1C22" fill-opacity="0.26"/>
<circle cx="480" cy="174" r="2" fill="#1A1C22" fill-opacity="0.26"/>
<circle cx="1120" cy="174" r="2" fill="#1A1C22" fill-opacity="0.26"/>
<circle cx="608" cy="174" r="2" fill="#1A1C22" fill-opacity="0.26"/>
<circle cx="1248" cy="174" r="2" fill="#1A1C22" fill-opacity="0.26"/>
<circle cx="32" cy="238" r="2" fill="#1A1C22" fill-opacity="0.26"/>
<circle cx="672" cy="238" r="2" fill="#1A1C22" fill-opacity="0.26"/>
<circle cx="160" cy="238" r="2" fill="#1A1C22" fill-opacity="0.26"/>
<circle cx="800" cy="238" r="2" fill="#1A1C22" fill-opacity="0.26"/>
<circle cx="288" cy="238" r="2" fill="#1A1C22" fill-opacity="0.26"/>
<circle cx="928" cy="238" r="2" fill="#1A1C22" fill-opacity="0.26"/>
<circle cx="416" cy="238" r="2" fill="#1A1C22" fill-opacity="0.26"/>
<circle cx="1056" cy="238" r="2" fill="#1A1C22" fill-opacity="0.26"/>
<circle cx="544" cy="238" r="2" fill="#1A1C22" fill-opacity="0.26"/>
<circle cx="1184" cy="238" r="2" fill="#1A1C22" fill-opacity="0.26"/>
<circle cx="96" cy="238" r="2" fill="#1A1C22" fill-opacity="0.26"/>
<circle cx="736" cy="238" r="2" fill="#1A1C22" fill-opacity="0.26"/>
<circle cx="224" cy="238" r="2" fill="#1A1C22" fill-opacity="0.26"/>
<circle cx="864" cy="238" r="2" fill="#1A1C22" fill-opacity="0.26"/>
<circle cx="352" cy="238" r="2" fill="#1A1C22" fill-opacity="0.26"/>
<circle cx="992" cy="238" r="2" fill="#1A1C22" fill-opacity="0.26"/>
<circle cx="480" cy="238" r="2" fill="#1A1C22" fill-opacity="0.26"/>
<circle cx="1120" cy="238" r="2" fill="#1A1C22" fill-opacity="0.26"/>
<circle cx="608" cy="238" r="2" fill="#1A1C22" fill-opacity="0.26"/>
<circle cx="1248" cy="238" r="2" fill="#1A1C22" fill-opacity="0.26"/>
<circle cx="32" cy="302" r="2" fill="#1A1C22" fill-opacity="0.26"/>
<circle cx="672" cy="302" r="2" fill="#1A1C22" fill-opacity="0.26"/>
<circle cx="160" cy="302" r="2" fill="#1A1C22" fill-opacity="0.26"/>
<circle cx="800" cy="302" r="2" fill="#1A1C22" fill-opacity="0.26"/>
<circle cx="288" cy="302" r="2" fill="#1A1C22" fill-opacity="0.26"/>
<circle cx="928" cy="302" r="2" fill="#1A1C22" fill-opacity="0.26"/>
<circle cx="416" cy="302" r="2" fill="#1A1C22" fill-opacity="0.26"/>
<circle cx="1056" cy="302" r="2" fill="#1A1C22" fill-opacity="0.26"/>
<circle cx="544" cy="302" r="2" fill="#1A1C22" fill-opacity="0.26"/>
<circle cx="1184" cy="302" r="2" fill="#1A1C22" fill-opacity="0.26"/>
<circle cx="96" cy="302" r="2" fill="#1A1C22" fill-opacity="0.26"/>
<circle cx="736" cy="302" r="2" fill="#1A1C22" fill-opacity="0.26"/>
<circle cx="224" cy="302" r="2" fill="#1A1C22" fill-opacity="0.26"/>
<circle cx="864" cy="302" r="2" fill="#1A1C22" fill-opacity="0.26"/>
<circle cx="352" cy="302" r="2" fill="#1A1C22" fill-opacity="0.26"/>
<circle cx="992" cy="302" r="2" fill="#1A1C22" fill-opacity="0.26"/>
<circle cx="480" cy="302" r="2" fill="#1A1C22" fill-opacity="0.26"/>
<circle cx="1120" cy="302" r="2" fill="#1A1C22" fill-opacity="0.26"/>
<circle cx="608" cy="302" r="2" fill="#1A1C22" fill-opacity="0.26"/>
<circle cx="1248" cy="302" r="2" fill="#1A1C22" fill-opacity="0.26"/>
<circle cx="32" cy="366" r="2" fill="#1A1C22" fill-opacity="0.26"/>
<circle cx="672" cy="366" r="2" fill="#1A1C22" fill-opacity="0.26"/>
<circle cx="160" cy="366" r="2" fill="#1A1C22" fill-opacity="0.26"/>
<circle cx="800" cy="366" r="2" fill="#1A1C22" fill-opacity="0.26"/>
<circle cx="288" cy="366" r="2" fill="#1A1C22" fill-opacity="0.26"/>
<circle cx="928" cy="366" r="2" fill="#1A1C22" fill-opacity="0.26"/>
<circle cx="416" cy="366" r="2" fill="#1A1C22" fill-opacity="0.26"/>
<circle cx="1056" cy="366" r="2" fill="#1A1C22" fill-opacity="0.26"/>
<circle cx="544" cy="366" r="2" fill="#1A1C22" fill-opacity="0.26"/>
<circle cx="1184" cy="366" r="2" fill="#1A1C22" fill-opacity="0.26"/>
<circle cx="96" cy="366" r="2" fill="#1A1C22" fill-opacity="0.26"/>
<circle cx="736" cy="366" r="2" fill="#1A1C22" fill-opacity="0.26"/>
<circle cx="224" cy="366" r="2" fill="#1A1C22" fill-opacity="0.26"/>
<circle cx="864" cy="366" r="2" fill="#1A1C22" fill-opacity="0.26"/>
<circle cx="352" cy="366" r="2" fill="#1A1C22" fill-opacity="0.26"/>
<circle cx="992" cy="366" r="2" fill="#1A1C22" fill-opacity="0.26"/>
<circle cx="480" cy="366" r="2" fill="#1A1C22" fill-opacity="0.26"/>
<circle cx="1120" cy="366" r="2" fill="#1A1C22" fill-opacity="0.26"/>
<circle cx="608" cy="366" r="2" fill="#1A1C22" fill-opacity="0.26"/>
<circle cx="1248" cy="366" r="2" fill="#1A1C22" fill-opacity="0.26"/>
<circle cx="32" cy="46" r="2" fill="#1A1C22" fill-opacity="0.26"/>
<circle cx="672" cy="46" r="2" fill="#1A1C22" fill-opacity="0.26"/>
<circle cx="160" cy="46" r="2" fill="#1A1C22" fill-opacity="0.26"/>
<circle cx="800" cy="46" r="2" fill="#1A1C22" fill-opacity="0.26"/>
<circle cx="288" cy="46" r="2" fill="#1A1C22" fill-opacity="0.26"/>
<circle cx="928" cy="46" r="2" fill="#1A1C22" fill-opacity="0.26"/>
<circle cx="416" cy="46" r="2" fill="#1A1C22" fill-opacity="0.26"/>
<circle cx="1056" cy="46" r="2" fill="#1A1C22" fill-opacity="0.26"/>
<circle cx="544" cy="46" r="2" fill="#1A1C22" fill-opacity="0.26"/>
<circle cx="1184" cy="46" r="2" fill="#1A1C22" fill-opacity="0.26"/>
<circle cx="96" cy="46" r="2" fill="#1A1C22" fill-opacity="0.26"/>
<circle cx="736" cy="46" r="2" fill="#1A1C22" fill-opacity="0.26"/>
<circle cx="224" cy="46" r="2" fill="#1A1C22" fill-opacity="0.26"/>
<circle cx="864" cy="46" r="2" fill="#1A1C22" fill-opacity="0.26"/>
<circle cx="352" cy="46" r="2" fill="#1A1C22" fill-opacity="0.26"/>
<circle cx="992" cy="46" r="2" fill="#1A1C22" fill-opacity="0.26"/>
<circle cx="480" cy="46" r="2" fill="#1A1C22" fill-opacity="0.26"/>
<circle cx="1120" cy="46" r="2" fill="#1A1C22" fill-opacity="0.26"/>
<circle cx="608" cy="46" r="2" fill="#1A1C22" fill-opacity="0.26"/>
<circle cx="1248" cy="46" r="2" fill="#1A1C22" fill-opacity="0.26"/>
<circle cx="205.542" cy="202.542" r="111.542" fill="white"/>
<path fill-rule="evenodd" clip-rule="evenodd" d="M177.239 171.852C178.838 170.687 180.807 170 182.936 170H194.596C199.945 170 204.282 174.337 204.282 179.686V191.346C204.282 196.695 199.945 201.032 194.596 201.032H191.526L160.787 231.771C159.013 233.996 156.278 235.423 153.21 235.423H141.551C136.201 235.423 131.864 231.086 131.864 225.736V214.077C131.864 208.727 136.201 204.391 141.551 204.391H144.282L175.343 173.329C175.925 172.747 176.563 172.255 177.239 171.852ZM248.981 214.029C248.981 208.679 253.318 204.342 258.667 204.342H270.327C275.676 204.342 280.013 208.679 280.013 214.029V225.688C280.013 231.038 275.676 235.374 270.327 235.374H258.667C253.318 235.374 248.981 231.038 248.981 225.688V214.029ZM243.593 170C241.473 170 239.512 170.681 237.917 171.837C237.231 172.243 236.585 172.74 235.995 173.329L204.934 204.391H202.203C196.853 204.391 192.517 208.727 192.517 214.077V225.736C192.517 231.086 196.853 235.423 202.203 235.423H213.862C216.93 235.423 219.665 233.996 221.44 231.771L252.179 201.032H255.253C260.602 201.032 264.939 196.695 264.939 191.346V179.686C264.939 174.337 260.602 170 255.253 170H243.593Z" fill="black"/>
<path d="M528.626 135.027C529.612 137.003 530.269 138.815 530.433 140.297C530.597 141.943 530.762 144.249 530.762 147.213V257.046C530.762 266.103 528.298 271.537 523.207 273.019C520.743 273.842 517.623 274.172 513.681 274.172C509.739 274.172 506.783 273.842 504.648 273.183C502.349 272.525 500.706 271.701 499.556 270.878C498.407 269.89 497.421 268.573 496.764 266.926C496.107 264.621 495.779 261.327 495.779 256.717V190.356C492.494 194.472 487.731 200.894 481.326 209.786C475.085 218.678 470.979 224.277 469.337 226.418C467.694 228.723 466.381 230.205 465.724 231.029C465.067 231.852 463.424 233.005 460.961 234.651C458.333 236.133 455.705 236.957 452.749 236.957C449.793 236.957 447.165 236.298 444.701 234.816C442.238 233.499 440.595 232.017 439.446 230.699L437.803 228.559C435.175 225.265 429.92 218.349 422.201 207.481C414.482 196.613 410.211 191.014 409.554 190.191V257.046C409.554 260.01 409.554 262.315 409.226 263.797C409.062 265.279 408.405 266.926 407.419 268.902C405.449 272.525 400.357 274.172 391.981 274.172C383.605 274.172 379.006 272.36 377.035 268.902C376.05 267.091 375.393 265.279 375.229 263.797C375.065 262.151 374.9 259.845 374.9 256.717V146.883C374.9 143.919 374.9 141.614 375.229 140.132C375.393 138.65 376.05 136.839 377.035 134.863C379.171 131.404 384.262 129.758 392.638 129.758C396.251 129.758 399.208 130.252 401.835 131.075C404.463 131.898 406.105 132.887 406.927 133.71L408.076 134.863L452.749 193.814C475.085 164.173 490.031 144.578 497.421 135.192C499.721 131.569 504.976 129.922 513.352 129.922C521.728 129.922 526.82 131.734 528.626 135.192V135.027Z" fill="black"/>
<path d="M581.501 240.01H627.709C630.686 240.01 633.001 240.01 634.489 240.34C635.977 240.505 637.796 241.167 639.78 242.158C643.417 243.977 645.071 249.101 645.071 257.696C645.071 266.953 642.591 272.407 637.796 273.895C635.481 274.722 632.174 275.052 627.544 275.052H563.974C554.714 275.052 549.258 272.573 547.77 267.449C546.943 265.3 546.612 261.994 546.612 257.366V147.114C546.612 140.337 547.935 135.708 550.415 133.394C552.896 130.915 557.691 129.758 564.635 129.758H627.875C630.851 129.758 633.166 129.758 634.654 130.088C636.142 130.254 637.961 130.915 639.945 131.907C643.583 133.725 645.236 138.849 645.236 147.444C645.236 156.701 642.756 162.156 637.961 163.643C635.646 164.47 632.339 164.8 627.709 164.8H581.831V184.801H612.378C615.355 184.801 617.669 184.801 619.158 185.132C620.646 185.297 622.464 185.958 624.449 186.95C628.086 188.768 629.74 193.892 629.74 202.488C629.74 211.744 627.26 217.199 622.134 218.687C619.819 219.513 616.512 219.844 611.882 219.844H581.831V239.844L581.501 240.01Z" fill="black"/>
<path d="M667.48 129.758H742.034C746.313 129.758 749.275 130.253 751.25 131.242C753.225 132.232 754.542 133.716 755.2 135.86C755.859 138.004 756.188 140.807 756.188 144.106C756.188 147.404 755.859 150.208 755.2 152.352C754.542 154.331 753.39 155.815 751.909 156.64C749.605 157.794 746.148 158.454 741.869 158.454H721.791V257.9C721.791 260.869 721.791 263.178 721.462 264.662C721.297 266.146 720.639 267.796 719.652 269.775C718.664 271.754 716.854 273.073 714.385 273.898C711.916 274.722 708.625 275.052 704.51 275.052C700.395 275.052 697.104 274.722 694.8 273.898C692.331 273.073 690.685 271.754 689.698 269.775C688.71 267.796 688.052 266.146 687.887 264.662C687.723 263.178 687.558 260.869 687.558 257.9V158.454H667.315C663.036 158.454 660.074 157.959 658.099 156.97C656.124 155.98 654.807 154.496 654.149 152.352C653.49 150.208 653.161 147.404 653.161 144.106C653.161 140.807 653.49 138.004 654.149 135.86C654.807 133.881 655.959 132.397 657.44 131.572C659.744 130.417 663.201 129.758 667.48 129.758Z" fill="black"/>
<path d="M956.738 128C976.206 128 993.199 135.071 1007.55 149.048C1021.91 163.19 1029.16 180.62 1029.16 201.504C1029.16 222.388 1022.24 240.147 1008.54 254.782C994.849 269.417 977.856 276.817 957.893 276.817C937.931 276.817 920.773 269.581 906.749 255.111C892.726 240.64 885.632 223.374 885.632 203.477C885.632 192.624 887.612 182.265 891.571 172.727C895.531 163.19 900.81 155.132 907.409 148.719C914.008 142.306 921.598 137.209 930.177 133.591C938.756 129.973 947.665 128 956.738 128ZM920.773 202.326C920.773 214.001 924.567 223.539 932.156 230.774C939.745 238.009 948.159 241.791 957.563 241.791C966.967 241.791 975.381 238.174 982.97 231.103C990.56 224.032 994.189 214.494 994.189 202.49C994.189 190.487 990.394 180.949 982.805 173.714C975.216 166.479 966.802 162.861 957.398 162.861C947.995 162.861 939.581 166.479 931.991 173.878C924.402 181.114 920.773 190.651 920.773 202.326Z" fill="black"/>
<path d="M1196.1 135.027C1197.08 137.003 1197.74 138.815 1197.91 140.297C1198.07 141.943 1198.23 144.249 1198.23 147.213V257.046C1198.23 266.103 1195.77 271.537 1190.68 273.019C1188.22 273.842 1185.1 274.172 1181.15 274.172C1177.21 274.172 1174.26 273.842 1172.12 273.183C1169.82 272.525 1168.18 271.701 1167.03 270.878C1165.88 269.89 1164.89 268.573 1164.24 266.926C1163.58 264.621 1163.25 261.327 1163.25 256.717V190.356C1159.97 194.472 1155.2 200.894 1148.8 209.786C1142.56 218.678 1138.45 224.277 1136.81 226.418C1135.17 228.723 1133.85 230.205 1133.2 231.029C1132.54 231.852 1130.9 233.005 1128.43 234.651C1125.81 236.133 1123.18 236.957 1120.22 236.957C1117.27 236.957 1114.64 236.298 1112.17 234.816C1109.71 233.499 1108.07 232.017 1106.92 230.699L1105.28 228.559C1102.65 225.265 1097.39 218.349 1089.67 207.481C1081.95 196.613 1077.68 191.014 1077.03 190.191V257.046C1077.03 260.01 1077.03 262.315 1076.7 263.797C1076.53 265.279 1075.88 266.926 1074.89 268.902C1072.92 272.525 1067.83 274.172 1059.45 274.172C1051.08 274.172 1046.48 272.36 1044.51 268.902C1043.52 267.091 1042.87 265.279 1042.7 263.797C1042.54 262.151 1042.37 259.845 1042.37 256.717V146.883C1042.37 143.919 1042.37 141.614 1042.7 140.132C1042.87 138.65 1043.52 136.839 1044.51 134.863C1046.48 131.404 1051.57 129.758 1059.95 129.758C1063.56 129.758 1066.52 130.252 1069.14 131.075C1071.77 131.898 1073.41 132.887 1074.24 133.71L1075.38 134.863L1120.06 193.814C1142.39 164.173 1157.34 144.578 1164.73 135.192C1167.03 131.569 1172.28 129.922 1180.66 129.922C1189.04 129.922 1194.13 131.734 1195.93 135.192L1196.1 135.027Z" fill="black"/>
<path fill-rule="evenodd" clip-rule="evenodd" d="M805.291 234.898H801.654V257.311C801.654 260.277 801.654 262.584 801.325 264.067C801.16 265.55 800.502 267.363 799.514 269.341C797.703 272.966 792.6 274.614 784.039 274.614C774.82 274.614 769.387 272.142 767.905 267.363C767.082 265.056 766.753 261.76 766.753 257.146V147.061C766.753 144.095 766.753 141.788 767.082 140.305C767.247 138.822 767.905 137.009 768.893 135.031C770.704 131.406 775.808 129.758 784.368 129.758H827.007C838.531 129.758 849.89 134.043 860.756 142.447C866.024 146.567 870.304 152.005 873.762 159.092C877.219 166.013 878.865 173.923 878.865 182.493C878.865 195.97 874.787 207.406 866.632 216.553C862.53 221.154 857.12 225.429 850.673 228.697C856.429 234.005 862.131 239.239 865.812 242.559L865.661 242.625C869.407 246.191 871.714 248.953 872.517 250.76C874.524 255.278 872.502 260.865 866.535 267.302C863.359 270.697 860.751 272.937 858.344 274.006C855.937 275.076 853.864 275.275 851.891 274.889C849.918 274.503 848.33 273.766 847.042 272.895C844.988 271.29 836.571 263.446 821.78 249.661L821.777 249.659C821.516 249.415 815.251 243.81 808.94 238.164C807.711 237.064 806.48 235.962 805.291 234.898ZM801.654 199.797H826.842C830.629 199.797 834.415 198.313 838.366 195.512C842.153 192.545 844.128 188.261 844.128 182.493C844.128 176.725 842.153 172.275 838.366 169.309C834.58 166.343 830.629 164.86 826.513 164.86H801.654V199.797Z" fill="black"/>
</g>
<defs>
<clipPath id="clip0_1364_33558">
<rect width="1292" height="406" rx="100" fill="white"/>
</clipPath>
</defs>
</svg>
