<svg width="1105" height="224" viewBox="0 0 1105 224" fill="none" xmlns="http://www.w3.org/2000/svg">
<circle cx="111.542" cy="111.542" r="111.542" fill="#6CFF95"/>
<path fill-rule="evenodd" clip-rule="evenodd" d="M83.2393 80.8517C84.8381 79.6871 86.807 79 88.9364 79H100.596C105.945 79 110.282 83.3367 110.282 88.6863V100.346C110.282 105.695 105.945 110.032 100.596 110.032H97.5262L66.7874 140.771C65.0126 142.996 62.2778 144.423 59.21 144.423H47.5505C42.201 144.423 37.8643 140.086 37.8643 134.736V123.077C37.8643 117.727 42.201 113.391 47.5505 113.391H50.2816L81.3428 82.3295C81.925 81.7473 82.5629 81.2547 83.2393 80.8517ZM154.981 123.029C154.981 117.679 159.318 113.342 164.667 113.342H176.327C181.676 113.342 186.013 117.679 186.013 123.029V134.688C186.013 140.038 181.676 144.374 176.327 144.374H164.667C159.318 144.374 154.981 140.038 154.981 134.688V123.029ZM149.593 79C147.473 79 145.512 79.6813 143.917 80.8369C143.231 81.2426 142.585 81.7401 141.995 82.3295L110.934 113.391H108.203C102.853 113.391 98.5167 117.727 98.5167 123.077V134.736C98.5167 140.086 102.853 144.423 108.203 144.423H119.862C122.93 144.423 125.665 142.996 127.44 140.771L158.179 110.032H161.253C166.602 110.032 170.939 105.695 170.939 100.346V88.6863C170.939 83.3367 166.602 79 161.253 79H149.593Z" fill="black"/>
<path d="M434.627 44.0306C435.612 46.0066 436.269 47.818 436.433 49.3C436.598 50.9466 436.762 53.252 436.762 56.216V166.049C436.762 175.106 434.298 180.54 429.207 182.022C426.743 182.846 423.623 183.175 419.681 183.175C415.739 183.175 412.783 182.846 410.648 182.187C408.349 181.528 406.706 180.705 405.557 179.882C404.407 178.894 403.422 177.576 402.765 175.93C402.108 173.624 401.779 170.331 401.779 165.72V99.359C398.495 103.476 393.732 109.898 387.326 118.79C381.085 127.682 376.979 133.281 375.337 135.421C373.695 137.727 372.381 139.209 371.724 140.032C371.067 140.855 369.425 142.008 366.961 143.655C364.333 145.137 361.705 145.96 358.749 145.96C355.793 145.96 353.165 145.301 350.701 143.819C348.238 142.502 346.596 141.02 345.446 139.703L343.804 137.562C341.176 134.269 335.92 127.353 328.201 116.484C320.482 105.616 316.212 100.018 315.555 99.1943V166.049C315.555 169.013 315.555 171.319 315.226 172.801C315.062 174.283 314.405 175.93 313.42 177.906C311.449 181.528 306.357 183.175 297.981 183.175C289.605 183.175 285.007 181.364 283.036 177.906C282.05 176.094 281.393 174.283 281.229 172.801C281.065 171.154 280.901 168.849 280.901 165.72V55.8867C280.901 52.9227 280.901 50.6173 281.229 49.1353C281.393 47.6533 282.05 45.8419 283.036 43.8659C285.171 40.4079 290.262 38.7612 298.638 38.7612C302.251 38.7612 305.208 39.2552 307.836 40.0786C310.463 40.9019 312.106 41.8899 312.927 42.7133L314.077 43.8659L358.749 102.817C381.085 73.1768 396.031 53.5813 403.422 44.1953C405.721 40.5726 410.977 38.9259 419.353 38.9259C427.729 38.9259 432.82 40.7372 434.627 44.1953V44.0306Z" fill="black"/>
<path d="M487.501 149.013H533.709C536.686 149.013 539.001 149.013 540.489 149.344C541.977 149.509 543.796 150.17 545.78 151.162C549.417 152.98 551.071 158.104 551.071 166.7C551.071 175.956 548.591 181.411 543.796 182.898C541.481 183.725 538.174 184.056 533.544 184.056H469.974C460.714 184.056 455.258 181.576 453.77 176.452C452.943 174.303 452.612 170.997 452.612 166.369V56.1172C452.612 49.3401 453.935 44.7118 456.415 42.3977C458.896 39.9183 463.691 38.7612 470.635 38.7612H533.875C536.851 38.7612 539.166 38.7612 540.654 39.0918C542.142 39.2571 543.961 39.9183 545.945 40.9101C549.583 42.7283 551.236 47.8525 551.236 56.4478C551.236 65.7043 548.756 71.159 543.961 72.6467C541.646 73.4732 538.339 73.8038 533.709 73.8038H487.831V93.8045H518.378C521.355 93.8045 523.669 93.8045 525.158 94.1351C526.646 94.3003 528.464 94.9615 530.449 95.9533C534.086 97.7715 535.74 102.896 535.74 111.491C535.74 120.748 533.26 126.202 528.134 127.69C525.819 128.516 522.512 128.847 517.882 128.847H487.831V148.848L487.501 149.013Z" fill="black"/>
<path d="M573.48 38.7612H648.034C652.313 38.7612 655.276 39.256 657.251 40.2455C659.226 41.235 660.542 42.7193 661.201 44.8633C661.859 47.0072 662.188 49.8109 662.188 53.1092C662.188 56.4076 661.859 59.2113 661.201 61.3552C660.542 63.3343 659.39 64.8185 657.909 65.6431C655.605 66.7976 652.149 67.4573 647.869 67.4573H627.791V166.904C627.791 169.872 627.791 172.181 627.462 173.666C627.298 175.15 626.639 176.799 625.652 178.778C624.664 180.757 622.854 182.076 620.385 182.901C617.916 183.726 614.625 184.056 610.51 184.056C606.396 184.056 603.104 183.726 600.8 182.901C598.331 182.076 596.685 180.757 595.698 178.778C594.71 176.799 594.052 175.15 593.887 173.666C593.723 172.181 593.558 169.872 593.558 166.904V67.4573H573.316C569.036 67.4573 566.074 66.9625 564.099 65.973C562.124 64.9835 560.807 63.4992 560.149 61.3552C559.491 59.2113 559.161 56.4076 559.161 53.1092C559.161 49.8109 559.491 47.0072 560.149 44.8633C560.807 42.8842 561.959 41.3999 563.441 40.5753C565.745 39.4209 569.201 38.7612 573.48 38.7612Z" fill="black"/>
<path d="M862.739 37C882.206 37 899.199 44.0708 913.553 58.0481C927.906 72.1898 935.165 89.6202 935.165 110.504C935.165 131.388 928.236 149.147 914.543 163.782C900.849 178.417 883.856 185.817 863.894 185.817C843.931 185.817 826.773 178.581 812.75 164.111C798.726 149.64 791.632 132.374 791.632 112.477C791.632 101.624 793.612 91.2646 797.571 81.7272C801.531 72.1898 806.81 64.1323 813.41 57.7192C820.009 51.3061 827.598 46.2085 836.177 42.5909C844.756 38.9733 853.665 37 862.739 37ZM826.773 111.326C826.773 123.001 830.567 132.539 838.157 139.774C845.746 147.009 854.16 150.791 863.564 150.791C872.968 150.791 881.382 147.174 888.971 140.103C896.56 133.032 900.189 123.494 900.189 111.491C900.189 99.4865 896.395 89.9491 888.806 82.7138C881.217 75.4785 872.803 71.8609 863.399 71.8609C853.995 71.8609 845.581 75.4785 837.992 82.8783C830.403 90.1135 826.773 99.6509 826.773 111.326Z" fill="black"/>
<path d="M1102.1 44.0306C1103.08 46.0066 1103.74 47.818 1103.91 49.3C1104.07 50.9466 1104.23 53.252 1104.23 56.216V166.049C1104.23 175.106 1101.77 180.54 1096.68 182.022C1094.22 182.846 1091.1 183.175 1087.15 183.175C1083.21 183.175 1080.26 182.846 1078.12 182.187C1075.82 181.528 1074.18 180.705 1073.03 179.882C1071.88 178.894 1070.89 177.576 1070.24 175.93C1069.58 173.624 1069.25 170.331 1069.25 165.72V99.359C1065.97 103.476 1061.2 109.898 1054.8 118.79C1048.56 127.682 1044.45 133.281 1042.81 135.421C1041.17 137.727 1039.85 139.209 1039.2 140.032C1038.54 140.855 1036.9 142.008 1034.43 143.655C1031.81 145.137 1029.18 145.96 1026.22 145.96C1023.27 145.96 1020.64 145.301 1018.17 143.819C1015.71 142.502 1014.07 141.02 1012.92 139.703L1011.28 137.562C1008.65 134.269 1003.39 127.353 995.673 116.484C987.954 105.616 983.684 100.018 983.027 99.1943V166.049C983.027 169.013 983.027 171.319 982.699 172.801C982.534 174.283 981.877 175.93 980.892 177.906C978.921 181.528 973.83 183.175 965.454 183.175C957.078 183.175 952.479 181.364 950.508 177.906C949.523 176.094 948.866 174.283 948.702 172.801C948.537 171.154 948.373 168.849 948.373 165.72V55.8867C948.373 52.9227 948.373 50.6173 948.702 49.1353C948.866 47.6533 949.523 45.8419 950.508 43.8659C952.479 40.4079 957.57 38.7612 965.946 38.7612C969.56 38.7612 972.516 39.2552 975.144 40.0786C977.772 40.9019 979.414 41.8899 980.235 42.7133L981.385 43.8659L1026.06 102.817C1048.39 73.1768 1063.34 53.5813 1070.73 44.1953C1073.03 40.5726 1078.28 38.9259 1086.66 38.9259C1095.04 38.9259 1100.13 40.7372 1101.93 44.1953L1102.1 44.0306Z" fill="black"/>
<path fill-rule="evenodd" clip-rule="evenodd" d="M711.291 143.902H707.654V166.314C707.654 169.28 707.654 171.588 707.325 173.071C707.16 174.554 706.502 176.367 705.514 178.344C703.703 181.97 698.599 183.618 690.039 183.618C680.82 183.618 675.387 181.146 673.905 176.367C673.082 174.059 672.753 170.764 672.753 166.149V56.0649C672.753 53.0986 672.753 50.7914 673.082 49.3082C673.247 47.8251 673.905 46.0123 674.893 44.0347C676.704 40.4092 681.807 38.7612 690.368 38.7612H733.007C744.531 38.7612 755.89 43.0459 766.756 51.4506C772.024 55.5705 776.304 61.0088 779.761 68.0951C783.218 75.0165 784.865 82.9268 784.865 91.4962C784.865 104.973 780.787 116.409 772.632 125.557C768.53 130.157 763.119 134.433 756.673 137.701C762.429 143.008 768.131 148.243 771.812 151.562L771.661 151.629C775.407 155.195 777.714 157.956 778.517 159.764C780.524 164.282 778.502 169.868 772.535 176.306C769.359 179.7 766.751 181.94 764.344 183.01C761.936 184.079 759.863 184.278 757.891 183.893C755.918 183.507 754.329 182.769 753.042 181.899C750.987 180.293 742.571 172.45 727.78 158.665L727.777 158.663C727.515 158.418 721.251 152.813 714.94 147.167C713.711 146.067 712.479 144.965 711.291 143.902ZM707.654 108.8H732.842C736.629 108.8 740.415 107.317 744.366 104.515C748.153 101.549 750.128 97.2641 750.128 91.4962C750.128 85.7284 748.153 81.2788 744.366 78.3125C740.58 75.3461 736.629 73.863 732.513 73.863H707.654V108.8Z" fill="black"/>
</svg>
